# Blender 3.1.0
# www.blender.org
mtllib default.mtl
o CONNECTOR_1
v -2.165319 6.272570 0.206487
v -2.165319 5.859600 -0.206483
v -2.165319 5.859600 0.206487
v -2.165319 6.272570 -0.206483
v -1.752349 5.859600 -0.206483
v -1.752349 6.272570 -0.206483
v -1.752349 5.859600 0.206487
v -1.752349 6.272570 0.206487
vn -1.0000 -0.0000 -0.0000
vn -0.0000 -0.0000 -1.0000
vn 1.0000 -0.0000 -0.0000
vn -0.0000 -0.0000 1.0000
vn -0.0000 -1.0000 -0.0000
vn -0.0000 1.0000 -0.0000
vt 0.625000 0.000000
vt 0.625000 1.000000
vt 0.875000 0.750000
vt 0.125000 0.500000
vt 0.375000 0.250000
vt 0.375000 0.000000
vt 0.375000 1.000000
vt 0.125000 0.750000
vt 0.625000 0.250000
vt 0.875000 0.500000
vt 0.375000 0.500000
vt 0.625000 0.500000
vt 0.375000 0.750000
vt 0.625000 0.750000
s 1
usemtl Default_OBJ
f 1/1/1 2/5/1 3/6/1
f 4/9/2 5/11/2 2/5/2
f 6/12/3 7/13/3 5/11/3
f 8/14/4 3/7/4 7/13/4
f 5/11/5 3/8/5 2/4/5
f 4/10/6 8/14/6 6/12/6
f 1/1/1 4/9/1 2/5/1
f 4/9/2 6/12/2 5/11/2
f 6/12/3 8/14/3 7/13/3
f 8/14/4 1/2/4 3/7/4
f 5/11/5 7/13/5 3/8/5
f 4/10/6 1/3/6 8/14/6
o COLLISION
v -0.148591 -0.000000 0.148591
v -0.129988 7.178234 -0.129987
v -0.148591 0.000000 -0.148591
v 0.129988 7.178234 -0.129987
v 0.148591 0.000000 -0.148591
v 0.129988 7.178234 0.129989
v 0.148591 -0.000000 0.148591
v -0.129988 7.178234 0.129989
vn -1.0000 0.0026 -0.0000
vn -0.0000 0.0026 -1.0000
vn -0.0000 0.0023 -1.0000
vn 1.0000 0.0026 -0.0000
vn 1.0000 0.0021 -0.0000
vn -0.0000 0.0026 1.0000
vn -0.0000 0.0023 1.0000
vn -0.0000 -1.0000 -0.0000
vn -0.0000 1.0000 -0.0000
vn -1.0000 0.0021 -0.0000
vt 0.375000 1.000000
vt 0.375000 0.000000
vt 0.125000 0.750000
vt 0.625000 0.250000
vt 0.875000 0.500000
vt 0.125000 0.500000
vt 0.375000 0.250000
vt 0.625000 0.500000
vt 0.375000 0.500000
vt 0.625000 0.750000
vt 0.375000 0.750000
vt 0.625000 0.000000
vt 0.625000 1.000000
vt 0.875000 0.750000
s 1
usemtl Default_OBJ
f 9/16/7 10/18/7 11/21/7
f 11/21/8 12/22/8 13/23/9
f 13/23/10 14/24/10 15/25/11
f 15/25/12 16/27/12 9/15/13
f 13/23/14 9/17/14 11/20/14
f 10/19/15 14/24/15 12/22/15
f 9/16/7 16/26/16 10/18/7
f 11/21/8 10/18/8 12/22/8
f 13/23/10 12/22/10 14/24/10
f 15/25/12 14/24/12 16/27/12
f 13/23/14 15/25/14 9/17/14
f 10/19/15 16/28/15 14/24/15
o Plane.001
v -0.409916 5.680787 0.050002
v -0.409916 5.680787 -0.049998
v -0.440122 5.640942 0.000002
v -0.379710 5.720632 0.000002
v -0.124269 5.464243 -0.049998
v -0.124269 5.464243 0.050002
v -0.154475 5.424398 0.000002
v -0.094064 5.504088 0.000002
v -0.409916 5.680787 -0.049998
v -0.409916 5.680787 0.050002
v -0.409916 5.630787 0.000002
v -0.409916 5.730787 0.000002
v -2.556888 5.680787 0.050002
v -2.556888 5.680787 -0.049998
v -2.556888 5.630787 0.000002
v -2.556888 5.730787 0.000002
v -2.055202 6.885472 0.050001
v -2.055202 6.885472 -0.049999
v -2.055202 6.835472 0.000001
v -2.055202 6.935473 0.000001
v -0.119962 6.885472 -0.049999
v -0.119962 6.885472 0.050001
v -0.119962 6.835472 0.000001
v -0.119962 6.935473 0.000001
v -2.055202 6.885472 0.050001
v -2.055202 6.885472 -0.049999
v -2.087469 6.847278 0.000001
v -2.022935 6.923667 0.000001
v -0.409916 5.680787 -0.049998
v -0.409916 5.680787 0.050002
v -0.442183 5.642592 0.000002
v -0.377649 5.718981 0.000002
v -2.022935 6.923667 0.000001
v -0.409916 5.680787 0.050002
v -0.377649 5.718981 0.000002
v -0.409916 5.680787 -0.049998
v -0.442183 5.642592 0.000002
v -2.055202 6.885472 -0.049999
v -2.055202 6.885472 0.050001
v -2.055202 6.935473 0.000001
v -0.119962 6.885472 0.050001
v -0.119962 6.935473 0.000001
v -2.055202 6.885472 -0.049999
v -0.119962 6.885472 -0.049999
v -2.055202 6.835472 0.000001
v -0.119962 6.835472 0.000001
v -2.055202 6.885472 0.050001
v -0.409916 5.730787 0.000002
v -2.556888 5.680787 -0.049998
v -2.556888 5.730787 0.000002
v -0.409916 5.680787 0.050002
v -2.556888 5.680787 0.050002
v -0.409916 5.630787 0.000002
v -2.556888 5.630787 0.000002
v -0.409916 5.680787 -0.049998
v -0.094064 5.504088 0.000002
v -0.409916 5.680787 0.050002
v -0.124269 5.464243 0.050002
v -0.409916 5.680787 -0.049998
v -0.124269 5.464243 -0.049998
v -0.154475 5.424398 0.000002
v -2.087469 6.847278 0.000001
v -0.379710 5.720632 0.000002
v -0.440122 5.640942 0.000002
vn -0.7969 0.6041 -0.0000
vn 0.7969 -0.6041 -0.0000
vn 1.0000 -0.0000 -0.0000
vn -1.0000 -0.0000 -0.0000
vn -0.7639 0.6453 -0.0000
vn -0.7639 0.6454 -0.0000
vn 0.7639 -0.6453 -0.0000
vn 0.7639 -0.6454 -0.0000
vn 0.4182 0.5712 0.7063
vn 0.4182 0.5712 0.7062
vn 0.4182 0.5712 -0.7062
vn -0.4182 -0.5712 -0.7063
vn -0.4182 -0.5712 0.7062
vn -0.4182 -0.5712 0.7063
vn -0.0000 0.7071 0.7071
vn -0.0000 0.7071 -0.7071
vn -0.0000 -0.7071 -0.7071
vn -0.0000 -0.7071 0.7071
vn 0.4272 0.5635 0.7071
vn 0.4272 0.5635 -0.7071
vn -0.4272 -0.5635 -0.7071
vn -0.4272 -0.5635 0.7071
vn 0.4182 0.5712 -0.7063
vn -0.4182 -0.5712 -0.7062
vt 1.000000 0.000000
vt 0.333333 0.000000
vt 0.666667 0.000000
vt 0.000000 0.000000
vt 0.333333 0.000000
vt 1.000000 0.000000
vt 0.666667 0.000000
vt 0.000000 0.000000
vt 1.000000 0.000000
vt 0.333333 0.000000
vt 0.666667 0.000000
vt 0.000000 0.000000
vt 0.333333 0.000000
vt 1.000000 0.000000
vt 0.666667 0.000000
vt 0.000000 0.000000
vt 1.000000 0.000000
vt 0.333333 0.000000
vt 0.666667 0.000000
vt 0.000000 0.000000
vt 0.333333 0.000000
vt 1.000000 0.000000
vt 0.666667 0.000000
vt 0.000000 0.000000
vt 1.000000 0.000000
vt 0.333333 0.000000
vt 0.666667 0.000000
vt 0.000000 0.000000
vt 0.333333 0.000000
vt 1.000000 0.000000
vt 0.666667 0.000000
vt 0.000000 0.000000
vt 1.000000 1.000000
vt 1.000000 0.000000
vt 0.000000 0.750000
vt 0.000000 1.000000
vt 0.000000 0.000000
vt 0.000000 0.250000
vt 0.000000 0.500000
vt 1.000000 0.250000
vt 1.000000 0.750000
vt 1.000000 1.000000
vt 1.000000 0.000000
vt 0.000000 0.750000
vt 0.000000 1.000000
vt 0.000000 0.000000
vt 1.000000 0.250000
vt 0.000000 0.250000
vt 1.000000 0.500000
vt 0.000000 0.500000
vt 1.000000 0.750000
vt 1.000000 1.000000
vt 1.000000 0.000000
vt 0.000000 0.750000
vt 0.000000 1.000000
vt 0.000000 0.000000
vt 1.000000 0.250000
vt 0.000000 0.250000
vt 1.000000 0.500000
vt 0.000000 0.500000
vt 1.000000 0.750000
vt 0.000000 1.000000
vt 0.000000 0.000000
vt 1.000000 0.750000
vt 0.000000 0.750000
vt 1.000000 0.250000
vt 0.000000 0.250000
vt 0.000000 0.500000
vt 1.000000 0.500000
vt 1.000000 1.000000
vt 1.000000 0.000000
vt 1.000000 0.500000
s 1
usemtl Default_OBJ
f 17/29/17 18/30/17 19/31/17
f 20/32/17 18/30/17 17/29/17
f 21/33/18 22/34/18 23/35/18
f 24/36/18 22/34/18 21/33/18
f 25/37/19 26/38/19 27/39/19
f 28/40/19 26/38/19 25/37/19
f 29/41/20 30/42/20 31/43/20
f 32/44/20 30/42/20 29/41/20
f 33/45/20 34/46/20 35/47/20
f 33/45/20 36/48/20 34/46/20
f 37/49/19 38/50/19 39/51/19
f 40/52/19 38/50/19 37/49/19
f 41/53/21 42/54/21 43/55/22
f 44/56/21 42/54/21 41/53/21
f 45/57/23 46/58/23 47/59/23
f 48/60/24 46/58/23 45/57/23
f 49/61/25 50/63/26 51/64/26
f 52/66/27 49/62/27 51/65/27
f 53/67/28 54/68/28 52/66/28
f 55/69/29 53/67/30 50/63/30
f 56/70/31 57/72/31 58/73/31
f 59/75/32 58/74/32 60/76/32
f 61/77/33 60/76/33 62/78/33
f 63/79/34 62/78/34 57/72/34
f 64/80/32 65/82/32 66/83/32
f 67/85/31 66/84/31 68/86/31
f 69/87/34 68/86/34 70/88/34
f 71/89/33 70/88/33 65/82/33
f 72/90/35 73/92/35 74/93/35
f 75/94/36 72/91/36 76/95/36
f 77/96/37 75/94/37 76/95/37
f 73/92/38 77/96/38 74/93/38
f 49/61/25 55/69/25 50/63/26
f 52/66/39 54/68/39 49/62/39
f 53/67/40 78/97/40 54/68/40
f 55/69/29 78/97/29 53/67/30
f 56/70/31 63/79/31 57/72/31
f 59/75/32 56/71/32 58/74/32
f 61/77/33 59/75/33 60/76/33
f 63/79/34 61/77/34 62/78/34
f 64/80/32 71/89/32 65/82/32
f 67/85/31 64/81/31 66/84/31
f 69/87/34 67/85/34 68/86/34
f 71/89/33 69/87/33 70/88/33
f 72/90/35 79/98/35 73/92/35
f 75/94/36 79/99/36 72/91/36
f 77/96/37 80/100/37 75/94/37
f 73/92/38 80/100/38 77/96/38
