# Blender 5.2.1 LTS
# www.blender.org
mtllib default_B.mtl
o COLLISION
v -0.148591 0.000000 0.148591
v -0.129988 7.178234 -0.129988
v -0.148591 -0.000000 -0.148591
v 0.129988 7.178234 -0.129988
v 0.148591 -0.000000 -0.148591
v 0.129988 7.178234 0.129988
v 0.148591 0.000000 0.148591
v -0.129988 7.178234 0.129988
vn -1.0000 0.0026 -0.0000
vn -0.0000 0.0026 -1.0000
vn -0.0000 0.0023 -1.0000
vn 1.0000 0.0026 -0.0000
vn 1.0000 0.0023 -0.0000
vn -0.0000 0.0026 1.0000
vn -0.0000 0.0023 1.0000
vn -0.0000 -1.0000 -0.0000
vn -0.0000 1.0000 -0.0000
vt 0.375000 0.000000
vt 0.625000 0.250000
vt 0.375000 0.250000
vt 0.625000 0.500000
vt 0.375000 0.500000
vt 0.625000 0.750000
vt 0.375000 0.750000
vt 0.625000 1.000000
vt 0.375000 1.000000
vt 0.125000 0.750000
vt 0.125000 0.500000
vt 0.875000 0.500000
vt 0.625000 0.000000
vt 0.875000 0.750000
s 1
usemtl Default_OBJ
f 1/1/1 2/2/1 3/3/1
f 3/3/2 4/4/2 5/5/3
f 5/5/4 6/6/4 7/7/5
f 7/7/6 8/8/6 1/9/7
f 5/5/8 1/10/8 3/11/8
f 2/12/9 6/6/9 4/4/9
f 1/1/1 8/13/1 2/2/1
f 3/3/2 2/2/2 4/4/2
f 5/5/4 4/4/4 6/6/4
f 7/7/6 6/6/6 8/8/6
f 5/5/8 7/7/8 1/10/8
f 2/12/9 8/14/9 6/6/9
o CONNECTOR_1_A
v -2.018241 7.006477 0.059409
v -2.018241 6.887661 -0.059406
v -2.018241 6.887661 0.059409
v -2.018241 7.006477 -0.059406
v -1.899426 6.887661 -0.059406
v -1.899426 7.006477 -0.059406
v -1.899426 6.887661 0.059409
v -1.899426 7.006477 0.059409
vn -1.0000 -0.0000 -0.0000
vn -0.0000 -0.0000 -1.0000
vn 1.0000 -0.0000 -0.0000
vn -0.0000 -0.0000 1.0000
vn -0.0000 -1.0000 -0.0000
vn -0.0000 1.0000 -0.0000
vt 0.625000 0.000000
vt 0.375000 0.250000
vt 0.375000 0.000000
vt 0.625000 0.250000
vt 0.375000 0.500000
vt 0.625000 0.500000
vt 0.375000 0.750000
vt 0.625000 0.750000
vt 0.375000 1.000000
vt 0.125000 0.750000
vt 0.125000 0.500000
vt 0.875000 0.500000
vt 0.625000 1.000000
vt 0.875000 0.750000
s 1
usemtl Default_OBJ
f 9/15/10 10/16/10 11/17/10
f 12/18/11 13/19/11 10/16/11
f 14/20/12 15/21/12 13/19/12
f 16/22/13 11/23/13 15/21/13
f 13/19/14 11/24/14 10/25/14
f 12/26/15 16/22/15 14/20/15
f 9/15/10 12/18/10 10/16/10
f 12/18/11 14/20/11 13/19/11
f 14/20/12 16/22/12 15/21/12
f 16/22/13 9/27/13 11/23/13
f 13/19/14 15/21/14 11/24/14
f 12/26/15 9/28/15 16/22/15
o Plane.001
v -0.409916 5.680787 0.050002
v -0.409916 5.680787 -0.049998
v -0.440122 5.640942 0.000002
v -0.379710 5.720632 0.000002
v -0.124269 5.464243 -0.049998
v -0.124269 5.464243 0.050002
v -0.154475 5.424398 0.000002
v -0.094064 5.504088 0.000002
v -0.409916 5.680787 -0.049998
v -0.409916 5.680787 0.050002
v -0.409916 5.630787 0.000002
v -0.409916 5.730787 0.000002
v -2.556888 5.680787 0.050002
v -2.556888 5.680787 -0.049998
v -2.556888 5.630787 0.000002
v -2.556888 5.730787 0.000002
v -2.055202 6.885472 0.050000
v -2.055202 6.885472 -0.050000
v -2.055202 6.835472 0.000000
v -2.055202 6.935473 0.000000
v -0.119962 6.885472 -0.050000
v -0.119962 6.885472 0.050000
v -0.119962 6.835472 0.000000
v -0.119962 6.935473 0.000000
v -2.055202 6.885472 0.050000
v -2.055202 6.885472 -0.050000
v -2.087469 6.847278 0.000000
v -2.022935 6.923667 0.000000
v -0.409916 5.680787 -0.049998
v -0.409916 5.680787 0.050002
v -0.442183 5.642592 0.000002
v -0.377649 5.718981 0.000002
v -2.022935 6.923667 0.000000
v -0.409916 5.680787 0.050002
v -0.377649 5.718981 0.000002
v -0.409916 5.680787 -0.049998
v -0.442183 5.642592 0.000002
v -2.055202 6.885472 -0.050000
v -2.055202 6.885472 0.050000
v -2.055202 6.935473 0.000000
v -0.119962 6.885472 0.050000
v -0.119962 6.935473 0.000000
v -2.055202 6.885472 -0.050000
v -0.119962 6.885472 -0.050000
v -2.055202 6.835472 0.000000
v -0.119962 6.835472 0.000000
v -2.055202 6.885472 0.050000
v -0.409916 5.730787 0.000002
v -2.556888 5.680787 -0.049998
v -2.556888 5.730787 0.000002
v -0.409916 5.680787 0.050002
v -2.556888 5.680787 0.050002
v -0.409916 5.630787 0.000002
v -2.556888 5.630787 0.000002
v -0.409916 5.680787 -0.049998
v -0.094064 5.504088 0.000002
v -0.409916 5.680787 0.050002
v -0.124269 5.464243 0.050002
v -0.409916 5.680787 -0.049998
v -0.124269 5.464243 -0.049998
v -0.154475 5.424398 0.000002
v -2.087469 6.847278 0.000000
v -0.379710 5.720632 0.000002
v -0.440122 5.640942 0.000002
vn -0.7969 0.6041 -0.0000
vn 0.7969 -0.6041 -0.0000
vn 1.0000 -0.0000 -0.0000
vn -1.0000 -0.0000 -0.0000
vn -0.7639 0.6453 -0.0000
vn -0.7639 0.6454 -0.0000
vn 0.7639 -0.6453 -0.0000
vn 0.7639 -0.6454 -0.0000
vn 0.4182 0.5712 0.7063
vn 0.4182 0.5712 0.7062
vn 0.4182 0.5712 -0.7062
vn -0.4182 -0.5712 -0.7063
vn -0.4182 -0.5712 0.7062
vn -0.4182 -0.5712 0.7063
vn -0.0000 0.7071 0.7071
vn -0.0000 0.7071 -0.7071
vn -0.0000 -0.7071 -0.7071
vn -0.0000 -0.7071 0.7071
vn 0.4272 0.5635 0.7071
vn 0.4272 0.5635 -0.7071
vn -0.4272 -0.5635 -0.7071
vn -0.4272 -0.5635 0.7071
vn 0.4182 0.5712 -0.7063
vn -0.4182 -0.5712 -0.7062
vt 1.000000 0.000000
vt 0.333333 0.000000
vt 0.666667 0.000000
vt 0.000000 0.000000
vt 1.000000 1.000000
vt 0.000000 0.750000
vt 0.000000 1.000000
vt 0.000000 0.250000
vt 0.000000 0.500000
vt 1.000000 0.250000
vt 1.000000 0.750000
vt 1.000000 0.500000
s 1
usemtl Default_OBJ
f 17/29/16 18/30/16 19/31/16
f 20/32/16 18/30/16 17/29/16
f 21/30/17 22/29/17 23/31/17
f 24/32/17 22/29/17 21/30/17
f 25/29/18 26/30/18 27/31/18
f 28/32/18 26/30/18 25/29/18
f 29/30/19 30/29/19 31/31/19
f 32/32/19 30/29/19 29/30/19
f 33/29/19 34/30/19 35/31/19
f 33/29/19 36/32/19 34/30/19
f 37/30/18 38/29/18 39/31/18
f 40/32/18 38/29/18 37/30/18
f 41/29/20 42/30/20 43/31/21
f 44/32/20 42/30/20 41/29/20
f 45/30/22 46/29/22 47/31/22
f 48/32/23 46/29/22 45/30/22
f 49/33/24 50/34/25 51/35/25
f 52/36/26 49/29/26 51/32/26
f 53/37/27 54/38/27 52/36/27
f 55/39/28 53/37/29 50/34/29
f 56/33/30 57/34/30 58/35/30
f 59/38/31 58/32/31 60/36/31
f 61/40/32 60/36/32 62/37/32
f 63/39/33 62/37/33 57/34/33
f 64/33/31 65/34/31 66/35/31
f 67/38/30 66/32/30 68/36/30
f 69/40/33 68/36/33 70/37/33
f 71/39/32 70/37/32 65/34/32
f 72/35/34 73/39/34 74/34/34
f 75/38/35 72/32/35 76/36/35
f 77/37/36 75/38/36 76/36/36
f 73/39/37 77/37/37 74/34/37
f 49/33/24 55/39/24 50/34/25
f 52/36/38 54/38/38 49/29/38
f 53/37/39 78/40/39 54/38/39
f 55/39/28 78/40/28 53/37/29
f 56/33/30 63/39/30 57/34/30
f 59/38/31 56/29/31 58/32/31
f 61/40/32 59/38/32 60/36/32
f 63/39/33 61/40/33 62/37/33
f 64/33/31 71/39/31 65/34/31
f 67/38/30 64/29/30 66/32/30
f 69/40/33 67/38/33 68/36/33
f 71/39/32 69/40/32 70/37/32
f 72/35/34 79/33/34 73/39/34
f 75/38/35 79/29/35 72/32/35
f 77/37/36 80/40/36 75/38/36
f 73/39/37 80/40/37 77/37/37
o CONNECTOR_1_B
v -1.840648 5.673983 0.059967
v -1.840648 5.555168 -0.058848
v -1.840648 5.555168 0.059967
v -1.840648 5.673983 -0.058848
v -1.721833 5.555168 -0.058848
v -1.721833 5.673983 -0.058848
v -1.721833 5.555168 0.059967
v -1.721833 5.673983 0.059967
vn -1.0000 -0.0000 -0.0000
vn -0.0000 -0.0000 -1.0000
vn 1.0000 -0.0000 -0.0000
vn -0.0000 -0.0000 1.0000
vn -0.0000 -1.0000 -0.0000
vn -0.0000 1.0000 -0.0000
vt 0.625000 0.000000
vt 0.375000 0.250000
vt 0.375000 0.000000
vt 0.625000 0.250000
vt 0.375000 0.500000
vt 0.625000 0.500000
vt 0.375000 0.750000
vt 0.625000 0.750000
vt 0.375000 1.000000
vt 0.125000 0.750000
vt 0.125000 0.500000
vt 0.875000 0.500000
vt 0.625000 1.000000
vt 0.875000 0.750000
s 1
usemtl Default_OBJ
f 81/41/40 82/42/40 83/43/40
f 84/44/41 85/45/41 82/42/41
f 86/46/42 87/47/42 85/45/42
f 88/48/43 83/49/43 87/47/43
f 85/45/44 83/50/44 82/51/44
f 84/52/45 88/48/45 86/46/45
f 81/41/40 84/44/40 82/42/40
f 84/44/41 86/46/41 85/45/41
f 86/46/42 88/48/42 87/47/42
f 88/48/43 81/53/43 83/49/43
f 85/45/44 87/47/44 83/50/44
f 84/52/45 81/54/45 88/48/45
